<svg xmlns="http://www.w3.org/2000/svg" width="15" height="15" viewBox="0 0 15 15">
  <g id="Grupo_8127" data-name="Grupo 8127" transform="translate(16235.5 20861.5)">
    <path id="Trazado_7292" data-name="Trazado 7292" d="M11.5,4A7.5,7.5,0,1,0,19,11.5,7.5,7.5,0,0,0,11.5,4Zm0,13.5a6,6,0,1,1,6-6A6,6,0,0,1,11.5,17.5Z" transform="translate(-16239.5 -20865.5)" fill="#e84236"/>
    <path id="Trazado_7293" data-name="Trazado 7293" d="M23.5,30.75a.75.75,0,1,1-.75-.75A.752.752,0,0,1,23.5,30.75Z" transform="translate(-16250.75 -20881.75)" fill="#e84236"/>
    <path id="Trazado_7294" data-name="Trazado 7294" d="M22.75,14a.752.752,0,0,0-.75.75V18.5a.75.75,0,0,0,1.5,0V14.75A.752.752,0,0,0,22.75,14Z" transform="translate(-16250.75 -20871.75)" fill="#e84236"/>
  </g>
</svg>
